<?xml version="1.0" standalone="no"?>
<!DOCTYPE svg PUBLIC "-//W3C//DTD SVG 20010904//EN"
 "http://www.w3.org/TR/2001/REC-SVG-20010904/DTD/svg10.dtd">
<svg version="1.0" xmlns="http://www.w3.org/2000/svg"
 width="400.000000pt" height="400.000000pt" viewBox="0 0 400.000000 400.000000"
 preserveAspectRatio="xMidYMid meet">

<g transform="translate(0.000000,400.000000) scale(0.100000,-0.100000)"
fill="#000000" stroke="none">
<path d="M0 2000 l0 -2000 2000 0 2000 0 0 899 0 898 -38 69 c-21 38 -50 89
-66 114 l-27 45 32 -35 c17 -19 46 -66 65 -105 l34 -69 0 1092 0 1092 -2000 0
-2000 0 0 -2000z m3644 1404 c5 -14 4 -15 -9 -4 -17 14 -19 20 -6 20 5 0 12
-7 15 -16z m101 -115 c23 -43 14 -45 -18 -4 -21 26 -24 35 -13 35 9 0 23 -14
31 -31z m87 -1 c4 -27 -11 -68 -25 -68 -5 0 -7 10 -3 23 3 12 6 32 6 45 0 12
4 22 9 22 5 0 11 -10 13 -22z m28 -53 c0 -19 -4 -35 -10 -35 -11 0 -14 53 -3
63 11 12 13 8 13 -28z m-924 -230 c9 -23 -16 -46 -44 -43 -35 4 -37 20 -4 40
35 21 41 21 48 3z m-1772 -31 c9 -3 16 -13 16 -21 0 -8 4 -12 9 -8 10 6 26
-13 18 -22 -9 -9 -77 29 -77 43 0 15 10 17 34 8z m1676 -9 c0 -8 -7 -15 -15
-15 -16 0 -20 12 -8 23 11 12 23 8 23 -8z m-65 -25 c-3 -5 -10 -10 -16 -10 -5
0 -9 5 -9 10 0 6 7 10 16 10 8 0 12 -4 9 -10z m-35 -41 c0 -4 6 -6 14 -3 7 3
16 -2 19 -10 8 -20 -7 -20 -38 0 -27 18 -34 37 -10 28 8 -4 15 -10 15 -15z
m160 1 c0 -13 -29 -32 -39 -25 -15 9 9 44 26 38 7 -3 13 -9 13 -13z m-90 -16
c0 -17 -22 -14 -28 4 -2 7 3 12 12 12 9 0 16 -7 16 -16z m98 -276 c7 -9 6 -17
-3 -25 -10 -9 -17 -8 -30 7 -13 14 -13 19 -3 23 21 8 25 8 36 -5z m-98 -53 c6
-8 8 -20 4 -26 -5 -9 -11 -7 -21 6 -23 33 -9 51 17 20z m-40 -56 c0 -23 -28
-26 -37 -3 -6 16 15 37 29 28 4 -3 8 -14 8 -25z m-545 -188 c3 -10 5 -23 4
-27 -5 -28 3 -35 32 -32 25 2 32 -1 35 -16 1 -10 8 -22 14 -26 9 -6 9 -9 0
-15 -9 -6 -9 -9 1 -15 10 -7 10 -11 0 -24 -11 -12 -11 -16 -1 -16 10 0 9 -4
-1 -16 -7 -9 -15 -23 -16 -33 -15 -72 -9 -80 39 -51 52 31 67 27 61 -17 -3
-21 -10 -44 -15 -50 -10 -12 -4 -17 14 -14 4 0 6 -8 5 -19 -1 -11 -8 -20 -18
-20 -13 0 -16 -10 -15 -51 1 -28 -2 -53 -6 -56 -5 -2 -4 -11 2 -18 8 -10 8
-15 0 -20 -6 -4 -9 -13 -6 -21 3 -8 -1 -14 -10 -14 -10 0 -14 -6 -11 -14 4 -9
-1 -17 -12 -21 -28 -8 -19 -46 14 -59 15 -7 29 -20 31 -30 3 -18 -7 -18 -48
-1 -21 8 -25 -14 -6 -33 9 -9 9 -15 0 -24 -8 -8 -9 -15 -1 -25 9 -10 7 -13 -6
-13 -14 0 -15 -3 -5 -15 15 -18 22 -65 10 -65 -4 0 -6 -13 -4 -29 3 -28 3 -28
-34 -21 -48 10 -72 20 -72 31 0 12 -37 11 -61 -2 -18 -9 -19 -8 -13 16 5 19 3
25 -7 23 -9 -2 -13 5 -11 18 1 12 -4 27 -13 34 -10 8 -15 9 -15 2 0 -6 -6 -9
-14 -6 -21 8 -10 29 22 43 16 8 22 15 15 19 -20 13 -8 91 18 119 20 22 21 25
5 19 -13 -4 -17 -2 -13 8 3 7 1 18 -5 24 -7 7 -3 14 13 23 13 7 26 12 29 12 3
0 15 7 27 17 35 27 1 34 -34 8 l-28 -22 24 27 c14 15 21 27 16 27 -5 0 -2 6 7
13 19 15 30 57 16 57 -6 0 -3 9 7 20 18 20 18 21 1 14 -16 -6 -17 -3 -11 17 4
13 11 28 16 34 13 14 11 25 -6 25 -15 0 -22 30 -7 30 4 0 18 10 32 21 23 19
24 20 2 9 -13 -6 -31 -10 -40 -8 -12 3 -2 13 33 36 28 17 46 32 42 32 -4 0 -3
8 2 19 6 10 7 22 3 26 -4 3 -7 10 -7 14 0 18 -35 41 -52 34 -16 -6 -16 -5 -4
11 11 12 11 20 3 28 -8 8 -13 7 -18 -5 -11 -28 -27 -19 -19 11 13 53 58 81 70
43z m920 -71 c27 -30 12 -34 -15 -5 -13 14 -19 25 -13 25 5 0 18 -9 28 -20z
m-27 -21 c10 -16 11 -24 2 -33 -6 -6 -10 -6 -9 -1 2 6 -2 20 -9 33 -16 28 -1
29 16 1z m-253 -87 c-8 -8 -25 10 -19 20 4 6 9 5 15 -3 4 -7 6 -15 4 -17z
m-712 -6 c8 -21 -17 -40 -31 -23 -9 10 -8 17 0 25 16 16 25 15 31 -2z m702
-27 c8 -23 1 -34 -14 -24 -13 8 -15 45 -2 45 5 0 13 -9 16 -21z m-675 -4 c-7
-8 -18 -15 -24 -15 -6 0 -2 7 8 15 25 19 32 19 16 0z m770 -117 c0 -6 -7 -5
-15 2 -8 7 -15 17 -15 22 0 6 7 5 15 -2 8 -7 15 -17 15 -22z m141 -10 c5 -10
7 -18 5 -18 -9 0 -46 43 -46 53 0 13 29 -12 41 -35z m-167 -27 c18 -34 3 -83
-18 -60 -8 8 -16 35 -19 62 -4 41 -2 46 10 35 8 -6 20 -23 27 -37z m-326 -3
c10 -24 9 -28 -4 -28 -17 0 -34 38 -26 58 6 16 14 7 30 -30z m-645 -18 c14
-23 15 -28 4 -24 -16 6 -41 54 -29 54 4 0 16 -13 25 -30z m1125 -8 c8 -12 10
-22 4 -22 -5 0 -17 12 -27 26 -11 17 -13 25 -4 22 7 -2 19 -14 27 -26z m707
18 c4 -6 10 -8 15 -5 5 3 25 -5 45 -17 26 -17 42 -40 65 -95 16 -39 30 -80 29
-90 0 -11 -3 -13 -6 -5 -3 7 -18 27 -35 45 -27 29 -29 30 -23 8 5 -16 4 -21
-4 -17 -7 5 -9 -3 -5 -26 11 -55 -11 -22 -60 92 -26 58 -46 108 -46 112 0 11
18 10 25 -2z m-1855 -41 c0 -5 -7 -9 -15 -9 -8 0 -15 7 -15 15 0 9 6 12 15 9
8 -4 15 -10 15 -15z m514 5 c9 -24 7 -34 -7 -34 -19 0 -36 20 -30 36 7 19 29
18 37 -2z m156 -19 c10 -13 9 -15 -8 -15 -22 0 -36 13 -25 24 10 10 20 7 33
-9z m-607 -46 c-6 -20 -6 -20 -19 0 -8 11 -11 27 -7 37 6 16 7 16 19 0 6 -9
10 -26 7 -37z m582 11 c16 -18 16 -20 2 -20 -10 0 -14 -6 -11 -14 3 -8 1 -24
-6 -35 -6 -12 -7 -21 -3 -21 4 0 22 -11 38 -25 24 -21 26 -25 10 -23 -28 4
-31 -29 -4 -58 12 -13 26 -24 31 -24 12 0 10 34 -4 48 -7 7 -8 12 -2 12 15 0
41 -31 43 -50 4 -51 20 -148 26 -162 5 -13 2 -18 -10 -18 -15 0 -17 -7 -11
-46 3 -28 2 -43 -4 -39 -13 8 -13 -8 0 -21 12 -12 -11 -124 -35 -171 -13 -26
-23 -33 -48 -34 l-32 -1 33 -9 c17 -5 32 -12 32 -15 0 -4 -8 -3 -17 0 -9 4
-19 2 -23 -4 -5 -8 -12 -7 -22 3 -10 10 -20 12 -29 6 -23 -15 -39 -10 -39 12
0 11 4 18 9 14 5 -3 12 4 16 15 3 11 12 20 18 20 7 1 1 7 -13 15 -15 9 -19 15
-10 15 9 0 5 6 -10 15 -19 11 -21 14 -8 15 21 0 13 30 -8 30 -8 0 -14 8 -14
18 0 11 -7 34 -16 52 -13 25 -14 34 -4 40 9 5 9 9 1 14 -6 4 -11 12 -11 18 0
6 11 1 25 -12 19 -18 26 -20 29 -9 10 28 15 138 7 144 -5 3 -9 20 -9 37 -1 18
-6 49 -11 67 -8 26 -8 37 1 42 9 6 9 11 0 22 -7 7 -10 16 -7 19 3 3 -4 13 -15
23 -30 28 -24 36 22 29 26 -5 39 -3 35 3 -10 15 12 83 27 83 7 0 21 -9 31 -20z
m485 1 c14 -28 13 -33 -8 -20 -10 7 -19 18 -19 25 0 20 15 17 27 -5z m-602
-10 c23 -20 29 -41 11 -41 -19 0 -69 34 -69 47 0 19 31 15 58 -6z m1255 -46
c17 -26 15 -25 -21 10 -23 21 -42 43 -42 49 0 13 38 -23 63 -59z m-1743 24 c0
-6 -4 -7 -10 -4 -5 3 -10 11 -10 16 0 6 5 7 10 4 6 -3 10 -11 10 -16z m1801
-56 c31 -50 17 -50 -17 -1 -46 67 -49 75 -25 54 12 -11 31 -35 42 -53z m-1821
11 c0 -19 -25 -18 -41 2 -10 13 -10 17 1 24 17 10 40 -5 40 -26z m136 0 c-2
-20 -13 -45 -24 -57 l-21 -20 4 37 c2 30 27 76 41 76 2 0 2 -16 0 -36z m-56
-1 c0 -24 -34 -123 -43 -123 -11 0 -3 62 13 104 8 23 30 37 30 19z m63 -94
c-6 -6 -17 -8 -24 -3 -9 5 -8 9 7 14 23 9 31 3 17 -11z m-53 -46 c0 -25 -8
-48 -24 -68 -23 -28 -26 -29 -42 -13 -16 15 -16 21 -4 43 10 18 16 22 22 13 5
-10 8 -8 8 5 0 20 21 57 32 57 5 0 8 -17 8 -37z m390 -9 c0 -8 -4 -12 -10 -9
-5 3 -10 10 -10 16 0 5 5 9 10 9 6 0 10 -7 10 -16z m13 -74 c3 -11 3 -20 1
-20 -2 0 -8 9 -14 20 -6 11 -7 20 -2 20 6 0 12 -9 15 -20z m1405 -115 l-6 30
24 -30 c26 -32 78 -150 89 -200 6 -27 5 -28 -8 -13 -8 10 -16 15 -19 13 -6 -6
-71 133 -71 152 0 7 -4 11 -8 10 -4 -1 -22 14 -41 34 -18 19 -28 28 -22 20 30
-44 21 -41 -27 9 -56 57 -71 85 -19 35 40 -38 38 -20 -2 25 -18 20 0 2 41 -39
68 -69 74 -73 69 -46z m-228 -35 c12 -16 19 -30 16 -30 -2 0 -14 14 -26 30
-12 17 -19 30 -16 30 2 0 14 -13 26 -30z m-1240 0 c0 -5 -2 -10 -4 -10 -3 0
-8 5 -11 10 -3 6 -1 10 4 10 6 0 11 -4 11 -10z m1348 -89 c24 -37 35 -67 36
-96 1 -30 9 -51 31 -78 38 -45 59 -55 50 -24 -16 52 -69 176 -97 227 -18 34
-22 45 -9 30 26 -32 95 -171 115 -233 23 -69 32 -132 18 -123 -8 5 -12 -2 -13
-21 -1 -23 -3 -20 -13 17 l-13 45 -10 -37 c-7 -21 -9 -73 -6 -120 3 -46 3 -81
0 -78 -3 3 -13 48 -21 100 -8 52 -24 122 -36 154 -25 73 -25 77 1 46 l20 -25
-19 40 c-11 22 -25 65 -31 95 -7 30 -26 80 -43 110 -39 69 -9 48 40 -29z
m-1413 59 c3 -6 -1 -7 -9 -4 -18 7 -21 14 -7 14 6 0 13 -4 16 -10z m398 -155
c4 -8 2 -17 -3 -20 -6 -4 -10 3 -10 14 0 25 6 27 13 6z m988 -88 c27 -51 59
-199 58 -267 l-1 -55 -13 35 c-12 31 -14 32 -15 10 -1 -23 -2 -24 -14 -7 -8
10 -18 18 -23 17 -4 -1 -11 9 -15 22 -3 14 -7 -5 -9 -47 -1 -38 -4 -56 -5 -40
-2 17 -9 62 -15 100 -7 39 -12 111 -13 160 -1 66 -6 99 -20 124 -16 29 -16 33
-2 28 11 -4 16 -1 16 10 0 20 42 -33 71 -90z m-983 26 c-2 -11 -13 -19 -28
-20 -14 -1 -19 0 -12 3 6 3 12 12 12 20 0 8 7 14 16 14 9 0 14 -7 12 -17z
m-400 -27 c17 -10 10 -78 -11 -99 -10 -10 -22 -15 -27 -12 -6 3 -19 8 -31 10
-11 2 -43 14 -70 26 -37 17 -46 25 -38 35 6 7 8 18 4 25 -4 6 -2 15 5 19 16
10 151 7 168 -4z m245 -20 c16 -13 16 -14 -9 -20 -29 -8 -51 5 -40 23 9 15 27
13 49 -3z m147 -2 c0 -9 -10 -25 -22 -36 -17 -14 -19 -21 -10 -25 10 -4 10 -8
1 -19 -6 -8 -12 -24 -13 -37 -1 -15 -7 -22 -21 -22 -11 -1 -25 -4 -32 -8 -13
-8 -26 6 -16 17 3 3 16 6 27 7 18 1 18 2 -4 9 l-25 7 28 8 c22 6 25 10 16 21
-9 11 -8 14 1 14 9 0 10 3 1 13 -6 8 -8 17 -4 20 3 4 0 7 -8 8 -8 0 4 9 26 19
50 23 55 24 55 4z m-126 -171 c4 -9 2 -20 -5 -23 -6 -4 -10 -10 -9 -14 1 -3
-2 -21 -5 -38 -7 -30 -8 -31 -21 -13 -7 10 -11 22 -8 26 3 5 0 18 -6 29 -9 17
-8 19 7 13 10 -3 15 -3 11 2 -8 9 9 35 22 35 4 0 11 -8 14 -17z m-68 -88 c3
-22 -13 -9 -19 16 -4 16 -3 19 5 11 7 -7 13 -19 14 -27z m-106 -66 c0 -6 -4
-8 -9 -5 -5 3 -12 -1 -15 -10 -4 -9 -9 -14 -12 -11 -8 8 19 47 28 41 4 -3 8
-10 8 -15z m94 -85 c3 -8 2 -12 -4 -9 -6 3 -10 10 -10 16 0 14 7 11 14 -7z
m-294 -556 c0 -38 -3 -49 -10 -38 -16 25 -11 90 7 90 2 0 3 -24 3 -52z m-161
-5 c5 -22 6 -55 1 -78 l-8 -40 -1 46 c0 26 -4 61 -7 78 -9 44 3 39 15 -6z m28
-55 c-2 -13 -4 -5 -4 17 -1 22 1 32 4 23 2 -10 2 -28 0 -40z"/>
<path d="M2510 1571 c0 -5 5 -13 10 -16 6 -3 10 -2 10 4 0 5 -4 13 -10 16 -5
3 -10 2 -10 -4z"/>
<path d="M2482 1298 c2 -6 10 -14 16 -16 7 -2 10 2 6 12 -7 18 -28 22 -22 4z"/>
<path d="M3681 1105 c0 -5 6 -30 13 -55 10 -32 15 -38 15 -20 0 24 -27 96 -28
75z"/>
<path d="M2160 1100 c0 -23 10 -26 28 -8 18 18 15 28 -8 28 -13 0 -20 -7 -20
-20z"/>
<path d="M2290 1100 c0 -5 5 -10 10 -10 6 0 10 5 10 10 0 6 -4 10 -10 10 -5 0
-10 -4 -10 -10z"/>
</g>
</svg>
